<svg width="28" height="27" viewBox="0 0 28 27" fill="none" xmlns="http://www.w3.org/2000/svg">
<g clip-path="url(#clip0)">
<path d="M14.8574 22.9778H3.7486C1.69058 22.9778 0.0161133 21.3039 0.0161133 19.2459C0.0161133 17.2168 1.64423 15.5603 3.66285 15.5145C4.38131 13.0214 6.65255 11.3 9.26564 11.3C11.4314 11.3 13.3817 12.4738 14.4043 14.3772C14.566 14.3592 14.7137 14.3505 14.8568 14.3505C17.2353 14.3505 19.1711 16.2851 19.1711 18.663C19.1716 21.042 17.2364 22.9778 14.8574 22.9778ZM3.7486 16.0934C2.01041 16.0934 0.595512 17.5077 0.595512 19.2459C0.595512 20.9841 2.00983 22.3978 3.7486 22.3978H14.8574C16.9166 22.3978 18.5922 20.7222 18.5922 18.663C18.5922 16.6044 16.9166 14.9299 14.8574 14.9299C14.6842 14.9299 14.5017 14.945 14.2832 14.978C14.1587 14.996 14.0364 14.9328 13.9808 14.8198C13.0862 13.0069 11.2791 11.88 9.26564 11.88C6.84144 11.88 4.74401 13.5249 4.16461 15.8801C4.13216 16.0122 4.01455 16.0939 3.87607 16.1003L3.7486 16.0934Z" fill="black"/>
<path d="M14.8574 22.9777C14.6975 22.9777 14.5677 22.848 14.5677 22.688C14.5677 22.5281 14.6975 22.3983 14.8574 22.3983C16.9166 22.3983 18.5922 20.7227 18.5922 18.6635C18.5922 16.6049 16.9166 14.9305 14.8574 14.9305C13.778 14.9305 12.7525 15.3969 12.0433 16.2098C11.9378 16.3303 11.7553 16.3425 11.6342 16.2376C11.5137 16.1321 11.5015 15.9491 11.6064 15.8285C12.4257 14.8893 13.6106 14.3511 14.8574 14.3511C17.2359 14.3511 19.1716 16.2857 19.1716 18.6635C19.1716 21.042 17.2364 22.9777 14.8574 22.9777Z" fill="black"/>
<path d="M20.9 17.2713C20.8258 17.2713 20.7516 17.2429 20.6949 17.1861C20.5819 17.0725 20.5825 16.8889 20.6954 16.7759C21.5593 15.9161 22.035 14.7712 22.035 13.5521C22.035 11.0433 19.9944 9.0021 17.485 9.0021C16.1651 9.0021 14.9113 9.57512 14.0451 10.574C13.9397 10.6945 13.7571 10.7078 13.636 10.603C13.5155 10.4981 13.5022 10.315 13.6071 10.1939C14.5834 9.06815 15.9971 8.42212 17.485 8.42212C20.313 8.42212 22.6144 10.7229 22.6144 13.5515C22.6144 14.9259 22.0785 16.2168 21.1051 17.1861C21.0477 17.2435 20.9736 17.2713 20.9 17.2713Z" fill="black"/>
<path d="M17.485 6.77604C17.3251 6.77604 17.1953 6.64625 17.1953 6.48634V4.31186C17.1953 4.15194 17.3251 4.02216 17.485 4.02216C17.6449 4.02216 17.7747 4.15194 17.7747 4.31186V6.48634C17.7747 6.64625 17.6449 6.77604 17.485 6.77604Z" fill="black"/>
<path d="M26.7264 13.8418H24.5519C24.392 13.8418 24.2622 13.712 24.2622 13.5521C24.2622 13.3922 24.392 13.2624 24.5519 13.2624H26.7264C26.8863 13.2624 27.0161 13.3922 27.0161 13.5521C27.0161 13.712 26.8863 13.8418 26.7264 13.8418Z" fill="black"/>
<path d="M22.4817 8.84505C22.4076 8.84505 22.3334 8.81666 22.2766 8.76046C22.1636 8.64748 22.1636 8.46381 22.2766 8.35083L23.8144 6.81368C23.9273 6.7007 24.111 6.7007 24.224 6.81368C24.337 6.92666 24.337 7.11033 24.224 7.22332L22.6863 8.76046C22.6301 8.81666 22.5559 8.84505 22.4817 8.84505Z" fill="black"/>
<path d="M24.0189 20.3763C23.9447 20.3763 23.8706 20.3479 23.8138 20.2917L22.2766 18.7551C22.1636 18.6421 22.1636 18.4585 22.2766 18.3455C22.3896 18.2325 22.5733 18.2325 22.6863 18.3455L24.2234 19.882C24.3364 19.995 24.3364 20.1787 24.2234 20.2917C24.1672 20.3485 24.093 20.3763 24.0189 20.3763Z" fill="black"/>
<path d="M12.4871 8.84505C12.4129 8.84505 12.3388 8.81666 12.282 8.76046L10.7454 7.22332C10.6324 7.11033 10.6324 6.92666 10.7454 6.81368C10.8584 6.7007 11.0421 6.7007 11.1551 6.81368L12.6916 8.35083C12.8046 8.46381 12.8046 8.64748 12.6916 8.76046C12.6354 8.81666 12.5613 8.84505 12.4871 8.84505Z" fill="black"/>
<path d="M14.0161 11.5344C14.9272 10.8254 16.1829 10.6627 17.2777 10.4121C17.6487 10.3272 18.0814 10.3848 18.4615 10.3848C18.8484 10.3848 19.1793 10.6823 19.4551 10.9322C20.026 11.4496 20.6798 12.2508 20.7023 13.0672C20.7126 13.4383 20.7567 13.8107 20.7567 14.1894C20.7567 14.5882 20.5315 14.9936 20.4184 15.3664C20.3116 15.7185 20.0841 16.0065 19.9413 16.3396C19.8883 16.4631 19.6994 16.9527 19.5366 16.9995C19.4971 17.0109 19.5089 16.8181 19.4823 16.7897C19.3298 16.6271 18.9024 16.0963 18.8964 16.3639C18.636 15.6097 18.2728 14.8065 17.7252 14.3262C16.8516 13.56 15.4822 13.5102 14.6805 12.6718C14.4848 12.4671 14.2822 12.2958 14.2064 12.021C14.0461 11.4399 14.431 11.4612 14.9161 11.4796C15.1993 11.4904 15.2516 11.7763 15.2966 12.0027C15.3061 12.0506 15.3792 12.4945 15.4295 12.4407C15.5483 12.3135 15.5795 12.0502 15.6982 11.8932C15.7561 11.8168 15.9045 11.5737 15.8583 11.8415C15.8466 11.9092 15.7176 12.316 15.6892 12.2217C15.6266 12.0138 15.5853 11.698 15.3751 11.5891C15.1597 11.4775 14.5657 11.4111 14.5657 11.7807C14.5657 11.8599 14.8 11.9659 14.8436 12.0088C15.0806 12.2422 15.3177 12.442 15.5684 12.6596C15.9173 12.9625 16.2971 13.2281 16.6495 13.5294C17.158 13.9642 17.5396 14.4673 17.9783 14.9649C18.2995 15.3293 18.6099 15.7079 18.9024 16.0963C18.9213 16.1213 19.0789 16.3553 19.1259 16.3396C19.146 16.3328 18.3077 15.1391 18.2894 15.1139C17.4031 13.8942 16.5455 12.6358 15.7617 11.3458C15.7459 11.3199 15.4802 10.964 15.4989 10.917C15.5118 10.8846 15.8036 11.0951 15.8221 11.1086C16.9024 11.8953 17.6552 13.1398 18.4615 14.1924C18.4865 14.225 18.5558 14.2716 18.4917 14.2046C18.2848 13.9885 18.0951 13.7713 17.9119 13.5325C17.3304 12.7746 16.8657 11.9503 16.3656 11.139C16.1584 10.8028 16.7535 11.5192 16.7824 11.5526C17.4579 12.3332 18.1202 13.1119 18.7333 13.943C18.8392 14.0865 19.2672 14.5731 18.9447 14.1164C18.4303 13.3879 17.8339 12.6903 17.4196 11.8963C17.3652 11.7919 17.1134 11.2942 17.1267 11.3275C17.1634 11.42 17.2345 11.4883 17.3018 11.5587C17.575 11.8439 17.8118 12.1524 18.0417 12.4741C18.4129 12.9933 18.7279 13.5969 19.1803 14.0525C19.3365 14.2099 19.2231 14.0299 19.1591 13.9522C18.9003 13.6378 18.6272 13.3478 18.4011 13.0063C18.1732 12.6621 17.8799 12.3152 17.7428 11.9206C17.6032 11.519 18.0397 11.9136 18.1535 12.0057C18.5472 12.3247 18.895 12.6913 19.1682 13.1219C19.2753 13.2907 19.5452 13.8229 19.4823 13.6328C19.4395 13.5037 19.3041 13.3758 19.2225 13.274C18.9764 12.9664 18.7335 12.6571 18.4766 12.3585C18.1764 12.0097 17.9307 11.6348 17.7126 11.2302C17.6295 11.0761 17.8406 11.4076 17.8817 11.4583C18.2335 11.8932 18.61 12.3139 18.9326 12.7722C19.0977 13.0066 19.3878 13.7982 19.3735 13.5112C19.3622 13.282 19.2122 12.9948 19.138 12.7843C18.9458 12.239 18.7294 11.7039 18.5098 11.1694C18.4978 11.14 18.2993 10.6356 18.3951 10.8835C18.6096 11.4392 19.0578 11.9203 19.3645 12.4285C19.5352 12.7114 19.7103 12.9973 19.8869 13.274C20.0199 13.4823 20.0018 13.2005 19.9926 13.0945C19.9893 13.0564 19.9182 12.7242 19.899 12.7509C19.8388 12.8342 19.8875 13.0988 19.8809 13.1918C19.8537 13.5757 19.7708 13.9586 19.7118 14.3384C19.6413 14.7916 19.6388 15.2642 19.5578 15.7131C19.5404 15.8091 19.1338 15.221 19.0957 15.1748C18.8645 14.8937 18.6218 14.6143 18.4011 14.3262C18.2003 14.0641 18.5877 14.6601 18.6608 14.7338C18.9515 15.0265 19.2529 15.3645 19.5849 15.6097C19.9155 15.8538 19.8155 15.0511 19.8205 14.8919C19.8611 13.5998 19.8326 12.3039 19.8326 11.0113C19.8326 10.5979 19.8498 11.2667 19.8658 11.358C19.9813 12.017 20.1788 12.6735 20.3218 13.3287C20.3365 13.3962 20.4305 13.7851 20.4305 13.7119C20.4305 13.0518 19.9881 12.5841 19.7782 12.0027C19.7023 11.7924 19.4372 11.6145 19.3162 11.4249C19.1379 11.1456 18.824 10.858 18.5279 10.7132C18.038 10.4736 17.537 10.1857 17.0059 10.0441C16.1238 9.809 15.4966 10.5664 14.8587 11.066C14.7301 11.1667 14.4479 11.4013 14.2849 11.4218C13.862 11.4751 14.1785 11.1358 14.4087 11.0842C14.8238 10.9914 15.2388 10.8441 15.6499 10.7406C16.0354 10.6435 16.4009 10.5185 16.7764 10.3969C18.0008 10.0006 19.4024 10.2684 20.0772 11.4766C20.2753 11.8312 20.5276 12.1664 20.6721 12.5501C20.752 12.7621 20.8475 12.9888 20.9077 13.2071C20.9539 13.3746 20.9404 13.5505 20.9862 13.7119C21.1037 14.126 20.8487 14.6053 20.6782 14.9801C20.5637 15.2316 20.4421 15.4759 20.3218 15.7252C20.2416 15.8914 20.2377 16.1245 20.05 16.1875" stroke="#FDFF96" stroke-opacity="0.51" stroke-linecap="round" stroke-linejoin="round"/>
<path d="M22.8664 9.0594C23.4567 8.62087 24.0415 7.97804 24.763 7.73755" stroke="#FDFF96" stroke-opacity="0.51" stroke-linecap="round" stroke-linejoin="round"/>
<path d="M24.5331 14.5767C25.2802 14.5767 26.0274 14.5767 26.7745 14.5767" stroke="#FDFF96" stroke-opacity="0.51" stroke-linecap="round" stroke-linejoin="round"/>
<path d="M22.9814 18.025C23.3268 18.292 23.7089 18.4175 24.0733 18.5997" stroke="#FDFF96" stroke-opacity="0.51" stroke-linecap="round" stroke-linejoin="round"/>
<path d="M18.0962 6.81801C18.0962 5.57278 18.0962 4.32756 18.0962 3.08234" stroke="#FDFF96" stroke-opacity="0.51" stroke-linecap="round" stroke-linejoin="round"/>
<path d="M13.0387 8.08237C12.5525 7.97819 12.0383 7.60351 11.6147 7.33524C11.4215 7.21286 11.1282 7.01992 11.0272 6.81799" stroke="#FDFF96" stroke-opacity="0.51" stroke-linecap="round" stroke-linejoin="round"/>
<path d="M7.42728 12.9284C7.86046 12.9284 8.217 12.5019 8.64209 12.5019C8.77011 12.5019 8.95945 12.4816 9.06098 12.5628C9.11777 12.6082 9.4856 12.603 9.55985 12.6047C9.69486 12.6078 9.81061 12.6549 9.94257 12.6713C10.1812 12.7012 9.9023 12.6733 9.79976 12.6733C8.90824 12.6733 8.0284 12.7743 7.16833 12.9893C7.05544 13.0176 6.94094 13.0393 6.8256 13.0522C6.71598 13.0643 6.62398 13.1418 6.51714 13.1531C6.49091 13.1558 6.34958 13.2084 6.34958 13.2388C6.34958 13.2703 6.57216 13.2559 6.58949 13.2559C7.2081 13.2559 7.80624 13.1116 8.42312 13.0864C8.93993 13.0653 9.46138 13.0845 9.97875 13.0845C10.2741 13.0845 10.6032 13.1228 10.8965 13.1607C11.2311 13.2039 11.5255 13.2351 11.8447 13.3264C11.9132 13.3459 12.1218 13.4958 11.9647 13.4958C11.2155 13.4958 10.4588 13.4621 9.71218 13.5225C9.14357 13.5684 8.56357 13.5215 7.99851 13.591C7.5089 13.6513 7.02911 13.7556 6.55141 13.89C6.29259 13.9628 6.02435 14.0233 5.77835 14.1127C5.74159 14.1261 5.47305 14.2169 5.46989 14.2422C5.46872 14.2516 5.78171 14.2498 5.7974 14.2498C6.56537 14.2498 7.33335 14.2498 8.10133 14.2498C8.82778 14.2498 9.54268 14.147 10.2701 14.147C10.8412 14.147 11.4142 14.147 11.9837 14.147C12.1815 14.147 12.7735 14.1731 12.5759 14.1813C11.9711 14.2065 11.3582 14.3256 10.748 14.3603C10.2407 14.3891 9.73754 14.4555 9.22854 14.4555C8.7933 14.4555 8.35535 14.4406 7.92044 14.4574C7.1256 14.4879 6.37004 14.7188 5.6108 14.9086C5.48774 14.9394 5.32418 14.9696 5.19761 14.9696C5.13888 14.9696 5.05274 14.9495 5.1462 14.9962C5.59842 15.2223 6.16449 15.2438 6.65804 15.2438C7.05909 15.2438 7.46038 15.2478 7.86141 15.2438C8.18077 15.2405 8.49202 15.1752 8.81345 15.1752C9.24014 15.1752 9.69767 15.1291 10.1158 15.2171C10.3071 15.2574 10.482 15.2631 10.6642 15.3542C10.717 15.3806 10.9739 15.6069 10.9022 15.6189C10.662 15.6589 10.394 15.6298 10.1501 15.6474C9.63171 15.6848 9.11316 15.7155 8.59448 15.7579C8.2757 15.7839 7.9543 15.7706 7.63673 15.7997C7.27286 15.8332 6.91398 15.9151 6.55141 15.9559C6.17871 15.9978 5.80799 16.0203 5.44705 16.1272C5.29641 16.1719 5.07942 16.2034 4.92342 16.2034C4.83404 16.2034 4.75916 16.2017 4.67399 16.2301C4.61338 16.2503 4.84239 16.2085 4.87392 16.2053C5.47982 16.1447 6.09785 16.3621 6.69612 16.4357C6.93434 16.465 7.1758 16.4254 7.41396 16.4605C7.72972 16.5069 8.05734 16.5082 8.37551 16.5385C8.84177 16.5829 9.33666 16.5804 9.80548 16.5804C9.98143 16.5804 10.2909 16.5139 10.4414 16.5976C10.4949 16.6273 11.0383 16.692 10.8622 16.7442C10.6659 16.8023 10.3772 16.7518 10.1787 16.7518C9.62945 16.7518 9.08153 16.7175 8.53165 16.7175C7.75414 16.7175 6.96693 16.6963 6.19154 16.7537C5.64964 16.7938 5.06944 16.9628 4.5369 16.7784C4.33318 16.7079 4.06036 16.7518 3.84381 16.7518C3.64112 16.7518 3.42758 16.7189 3.24213 16.8032C2.91396 16.9524 2.589 17.1305 2.26724 17.2735C2.19602 17.3052 1.89176 17.4124 2.13776 17.403C2.4458 17.3911 2.7597 17.3687 3.07457 17.3687C4.33752 17.3687 5.5901 17.1831 6.85225 17.1631C7.4425 17.1537 8.03572 17.055 8.62304 16.9993C9.36414 16.9291 10.1067 16.852 10.8489 16.7861C11.4032 16.7368 11.969 16.6749 12.5169 16.5804C13.0509 16.4883 13.6004 16.5265 14.1182 16.3672C14.2333 16.3317 14.1291 16.3505 14.0744 16.3748C13.909 16.4483 13.7533 16.4853 13.566 16.5195C12.2204 16.765 10.8381 16.8379 9.47607 16.906C8.40307 16.9597 7.30741 16.8757 6.24295 17.045C5.37239 17.1835 4.57689 17.4885 3.73719 17.7457C3.12746 17.9325 2.4558 18.2369 1.81407 18.2598C1.71869 18.2632 1.44063 18.3284 1.53607 18.3284C2.19044 18.3284 2.84481 18.3284 3.49918 18.3284C5.07262 18.3284 6.64695 18.3229 8.21938 18.2598C9.75179 18.1984 11.2709 17.9979 12.8025 17.919C13.4763 17.8843 14.1484 17.8828 14.8227 17.8828C15.4418 17.8828 13.5837 17.892 12.9662 17.9361C11.1029 18.0692 9.26444 18.4452 7.42728 18.7701C6.54001 18.927 5.61642 19.1558 4.71017 19.1833C3.95972 19.206 3.18488 19.1906 2.46907 19.4518C2.21997 19.5427 1.97589 19.6801 1.72077 19.7488C1.70568 19.7529 1.40669 19.8402 1.49038 19.863C1.57937 19.8873 1.69242 19.8707 1.7836 19.8707C2.29876 19.8707 2.81329 19.8997 3.32781 19.9221C5.09093 19.9987 6.86041 19.9867 8.62495 19.9716C9.99556 19.9598 11.365 19.9392 12.7358 19.9392C13.3826 19.9392 14.0222 19.951 14.6647 19.8707C14.6836 19.8683 14.8765 19.8378 14.7618 19.8364C14.2251 19.8299 13.6876 19.8536 13.1547 19.9202C11.7829 20.0916 10.4305 20.4103 9.05717 20.5828C8.18991 20.6917 7.3104 20.6317 6.44859 20.7618C5.53715 20.8993 4.63587 21.1195 3.72957 21.293C3.41173 21.3539 3.08752 21.4305 2.76801 21.4796C2.59149 21.5068 2.89227 21.5101 2.95651 21.5234C3.62293 21.6618 4.28225 21.8166 4.95199 21.9461C5.94342 22.1378 6.96803 22.083 7.96423 21.9537C9.85321 21.7085 11.7258 21.664 13.6289 21.7881C14.1681 21.8232 14.7086 21.8826 15.2492 21.8928C15.5536 21.8985 15.1281 21.8138 15.0417 21.7843C13.7438 21.3402 12.6999 20.4034 11.5172 19.7412C10.4958 19.1693 9.36702 18.8286 8.21938 18.6178C8.13817 18.6029 8.05886 18.5929 7.97947 18.5702C7.89891 18.5472 8.14702 18.5683 8.2308 18.5683C10.2599 18.5683 12.2423 18.1033 14.2325 17.7648C15.1149 17.6147 16.0126 17.5058 16.9096 17.5058C17.3134 17.5058 16.1155 17.6538 15.7214 17.7419C14.7666 17.9554 13.8252 18.2414 12.9034 18.5683C12.2273 18.808 11.5137 19.0678 10.8813 19.4099C10.7333 19.4899 10.5407 19.577 10.4167 19.6898C10.3827 19.7207 10.9758 19.6747 11.0545 19.6593C12.6385 19.3487 17.443 18.7553 15.8623 19.0824C15.5626 19.1444 15.2939 19.2443 15.0093 19.3604C14.4427 19.5915 13.8708 19.8192 13.3242 20.0953C13.2065 20.1548 12.8601 20.2922 12.991 20.3086C13.1101 20.3235 13.3376 20.2218 13.4346 20.1925C13.6661 20.1225 13.8981 20.0545 14.1296 19.9849C14.9502 19.7384 15.7732 19.5547 16.6316 19.5298C16.6856 19.5283 17.2036 19.5142 17.0638 19.5546C16.6309 19.6795 16.1956 19.7773 15.7671 19.9202C15.0451 20.1608 14.2312 20.3426 13.5584 20.7085C13.3943 20.7977 13.7712 20.7618 13.7926 20.7618C14.2288 20.7618 14.6667 20.7734 15.1026 20.7561C15.4676 20.7416 15.8293 20.6947 16.186 20.6171C16.197 20.6147 16.5097 20.55 16.5097 20.5561C16.5097 20.5783 16.2648 20.6767 16.247 20.6856C16.0263 20.7959 15.8146 20.8833 15.5729 20.9408C15.3715 20.9887 15.1583 21.0568 14.9503 21.0683C14.9247 21.0698 14.6825 21.084 14.718 21.036C14.8621 20.841 15.1113 20.6794 15.2987 20.5295C15.8362 20.0995 16.3782 19.672 16.9248 19.2537C17.2585 18.9985 17.6088 18.7712 17.9625 18.5454C18.0236 18.5065 18.2196 18.4312 18.1472 18.4312C17.8391 18.4312 17.5334 18.4506 17.2257 18.4674C16.7013 18.496 16.1727 18.5884 15.6491 18.6025C15.4731 18.6073 15.9983 18.55 16.167 18.4997C16.3946 18.4319 16.6514 18.4142 16.8258 18.2332C17.0769 17.9724 16.0537 17.9952 15.9994 17.9932C15.6455 17.9808 15.291 17.9856 14.937 17.9856C14.792 17.9856 14.6095 18.0096 14.8665 17.9114C15.5062 17.6668 16.1809 17.5278 16.8258 17.3002C16.8667 17.2857 17.2911 17.188 17.1723 17.1117C17.0365 17.0243 16.857 16.9994 16.702 16.9746C16.2842 16.9075 15.8638 16.8658 15.4415 16.8394C15.0595 16.8155 14.6307 16.774 14.2515 16.8546C14.1534 16.8755 14.0482 16.9004 13.9545 16.9365C13.7982 16.9966 14.2849 16.8785 14.4457 16.8318C14.9274 16.6917 15.4746 16.5949 15.9271 16.3748C16.0176 16.3307 16.077 16.2743 16.148 16.2034C16.23 16.1214 16.2901 16.08 16.1422 16.0492C15.7066 15.9584 15.2459 15.9635 14.8037 15.9635C14.3416 15.9635 13.8796 15.9635 13.4175 15.9635C13.2723 15.9635 12.8389 16.0122 12.9834 15.9978C13.2631 15.9698 13.5513 15.771 13.8231 15.6874C14.2505 15.5559 15.6005 15.4917 15.154 15.5179C14.8817 15.534 14.4998 15.8947 14.2915 16.0282C13.6076 16.4666 12.8797 16.9836 12.1113 17.2659C11.6599 17.4317 11.2375 17.2316 10.7823 17.2316C9.82312 17.2316 8.92609 17.4699 7.97947 17.5896C6.77898 17.7414 5.48011 18.0871 4.46454 18.7587C3.95879 19.0931 3.48191 19.5817 3.10122 20.0496C2.95753 20.2263 2.8678 20.4605 2.71279 20.6247C2.59576 20.7486 2.45795 20.8342 2.32055 20.9331C2.25232 20.9823 2.19073 21.0425 2.11682 21.0836C2.08442 21.1016 2.22757 21.0563 2.25772 21.0531C3.25175 20.9473 4.24475 20.8913 5.23379 20.7389C6.35634 20.566 7.47833 20.4138 8.61352 20.3524C10.0986 20.2721 11.5718 20.0462 13.0633 20.1715C13.1112 20.1755 13.6729 20.289 13.6365 20.3314C13.5773 20.4005 13.2002 20.3866 13.1395 20.3924C12.4947 20.4532 11.8512 20.5054 11.2088 20.5904C10.1614 20.7289 9.11223 20.7961 8.06134 20.897C7.53433 20.9476 7.0025 20.9416 6.47715 21.0017C6.37733 21.0131 6.26507 21.036 6.42193 21.036C6.81611 21.036 7.17898 21.1099 7.56819 21.1521C8.98727 21.306 10.3452 20.7167 11.7533 20.6932C12.6649 20.678 13.576 20.6268 14.4876 20.6856C15.019 20.7199 15.5381 20.6691 16.0623 20.5885C16.4838 20.5236 16.9307 20.4823 17.3437 20.3676C17.4302 20.3436 17.6081 20.3831 17.675 20.3162C17.7721 20.2191 17.4116 20.3941 17.2809 20.4362C16.9373 20.5466 16.7195 20.7452 16.4298 20.9522C16.1527 21.15 15.87 21.2873 15.5653 21.4396C15.5442 21.4502 15.7707 21.4451 15.8262 21.4282C16.173 21.3226 16.548 21.1165 16.8334 20.897C17.0838 20.7044 17.2708 20.4614 17.4922 20.2401C17.569 20.1633 17.6339 20.1038 17.6541 19.9925C17.6815 19.8419 17.7434 19.7059 17.7931 19.5622C17.843 19.4177 17.9644 19.2361 17.9644 19.0824C17.9644 18.898 17.865 18.7442 17.7778 18.5873C17.695 18.4382 17.6353 18.274 17.5532 18.1303C17.3999 17.8622 17.2965 17.5446 17.1571 17.2659C17.0293 17.0103 16.7817 16.794 16.5307 16.6642C15.8346 16.3041 14.9066 16.6023 14.2934 16.9803C13.4928 17.4736 12.5631 17.7843 11.6239 17.8752C11.6087 17.8767 11.5909 17.8856 11.5782 17.8771C11.5683 17.8705 11.6006 17.8686 11.6124 17.8676C12.0888 17.8252 12.583 17.8547 13.0576 17.8809C13.978 17.9317 14.9056 18.007 15.7995 18.2427C15.9024 18.2698 16.0345 18.2616 16.1023 18.3436C16.1128 18.3564 16.0906 18.3785 16.0756 18.3855C15.9932 18.4236 15.65 18.4922 15.6072 18.4997C13.8813 18.8013 12.1099 18.9704 10.3634 19.0976C7.56075 19.3017 4.6758 19.2241 1.9702 20.0725C1.64855 20.1733 1.82668 20.1496 2.03875 20.141C3.29782 20.0902 4.57253 19.9293 5.82024 19.7621C7.25066 19.5705 8.66688 19.284 10.0816 19.0024C10.7383 18.8717 11.4219 18.6904 12.0961 18.6711C12.419 18.6619 11.4498 18.6655 11.1269 18.6768C9.67711 18.7277 8.19259 18.8559 6.77609 19.1852C6.44774 19.2615 6.176 19.4087 5.86594 19.5279" stroke="#9CE1FC" stroke-opacity="0.33" stroke-linecap="round" stroke-linejoin="round"/>
</g>
<defs>
<clipPath id="clip0">
<rect x="0.0161133" width="27" height="27" fill="white"/>
</clipPath>
</defs>
</svg>
