<svg width="364" height="687" viewBox="0 0 364 687" fill="none" xmlns="http://www.w3.org/2000/svg">
<path d="M348.866 118.079C320.876 118.079 300.561 139.175 300.561 168.239C300.561 197.151 328.226 225.422 348.866 225.422C369.508 225.422 397.172 197.149 397.172 168.239C397.172 139.175 376.855 118.079 348.866 118.079ZM348.866 214.688C336.495 214.688 311.295 193.188 311.295 168.239C311.295 145.391 327.094 128.813 348.866 128.813C370.64 128.813 386.436 145.391 386.436 168.239C386.436 193.188 361.236 214.688 348.866 214.688Z" fill="#E5E5E5"/>
<path d="M225.42 0C212.316 0 203.952 21.1434 203.952 32.2022C203.952 44.0434 213.585 53.6717 225.42 53.6717C237.255 53.6717 246.889 44.0434 246.889 32.2022C246.889 21.1434 238.524 0 225.42 0ZM225.42 42.9377C219.498 42.9377 214.686 38.1201 214.686 32.2022C214.686 24.1789 221.406 10.7341 225.42 10.7341C229.436 10.7341 236.155 24.1789 236.155 32.2022C236.155 38.1215 231.343 42.9377 225.42 42.9377Z" fill="#E5E5E5"/>
<path d="M252.256 53.673H198.584C195.618 53.673 193.217 56.0737 193.217 59.0394C193.217 62.0064 195.618 64.4071 198.584 64.4071H252.256C255.223 64.4071 257.623 62.005 257.623 59.0394C257.623 56.0737 255.223 53.673 252.256 53.673Z" fill="#E5E5E5"/>
<path d="M214.121 78.1096L203.387 56.6401C202.055 53.9871 198.847 52.9283 196.184 54.2394C193.531 55.5652 192.463 58.7872 193.784 61.4402L204.518 82.9096C205.461 84.791 207.36 85.8753 209.319 85.8753C210.126 85.8753 210.944 85.6915 211.72 85.3104C214.373 83.9845 215.441 80.7626 214.121 78.1096Z" fill="#E5E5E5"/>
<path d="M241.522 75.1413H209.318C206.351 75.1413 203.95 77.542 203.95 80.509C203.95 83.4747 206.352 85.8754 209.318 85.8754H241.522C244.489 85.8754 246.889 83.4747 246.889 80.509C246.889 77.542 244.489 75.1413 241.522 75.1413Z" fill="#E5E5E5"/>
<path d="M254.656 54.238C252.014 52.9391 248.787 53.9871 247.456 56.6388L236.72 78.1083C235.4 80.7599 236.469 83.9832 239.121 85.309C239.896 85.6915 240.714 85.8753 241.522 85.8753C243.482 85.8753 245.38 84.7897 246.323 82.9083L257.057 61.4388C258.377 58.7872 257.309 55.5639 254.656 54.238Z" fill="#E5E5E5"/>
<path d="M278.725 196.63L236.678 89.2866C236.028 87.636 234.613 86.4095 232.884 86.0109C231.143 85.6017 229.33 86.0955 228.04 87.3005L216.415 98.036C214.969 99.3671 214.37 101.375 214.843 103.278L247.046 232.089C247.654 234.532 249.845 236.157 252.256 236.157C252.686 236.157 253.126 236.104 253.557 235.993C256.44 235.275 258.18 232.36 257.468 229.489L226.029 103.763L229.552 100.513L268.725 200.54C269.805 203.302 272.897 204.68 275.686 203.58C278.442 202.501 279.805 199.388 278.725 196.63Z" fill="#E5E5E5"/>
<path d="M440.696 487.49C427.015 408.922 416.91 331.37 416.742 330.16C416.187 327.602 401.983 266.781 287.018 204.597C284.565 203.286 281.526 204.025 279.995 206.342L237.057 270.749C235.883 272.515 235.851 274.811 236.994 276.604L262.634 316.962L257.634 412.958L246.9 595.442C246.785 597.298 247.656 599.08 249.175 600.149C250.086 600.789 251.166 601.125 252.256 601.125C252.97 601.125 253.693 600.978 254.373 600.683L329.514 568.48C331.392 567.683 332.638 565.88 332.754 563.847C332.869 561.814 331.81 559.885 330.028 558.878C327.66 557.536 324.904 555.419 323.257 553.573C335.155 544.915 389.046 517.052 437.77 493.235C439.92 492.187 441.114 489.839 440.696 487.49ZM311.494 554.267C312.343 557.308 314.441 560.044 316.746 562.277L258.127 587.405L268.347 413.547L273.442 315.811C273.505 314.698 273.211 313.592 272.614 312.654L247.928 273.795L286.198 216.391C392.284 275.068 406.112 331.859 406.164 331.98C406.269 332.74 416.059 407.927 429.436 485.363C308.747 544.466 310.078 549.235 311.494 554.267Z" fill="#E5E5E5"/>
<path d="M348.866 75.1413C345.899 75.1413 343.499 77.542 343.499 80.509V123.445C343.499 126.412 345.899 128.813 348.866 128.813C351.833 128.813 354.234 126.412 354.234 123.447V80.509C354.234 77.542 351.833 75.1413 348.866 75.1413Z" fill="#E5E5E5"/>
<path d="M392.612 150.937C391.752 150.47 371.447 139.547 348.866 139.547C326.306 139.547 305.76 150.46 304.89 150.921C302.291 152.326 301.306 155.576 302.709 158.186C303.674 159.989 305.529 161.017 307.448 161.017C308.297 161.017 309.168 160.811 309.976 160.377C310.165 160.277 329.076 150.281 348.868 150.281C368.649 150.281 387.297 160.266 387.486 160.366C390.086 161.781 393.346 160.802 394.762 158.212C396.176 155.607 395.213 152.352 392.612 150.937Z" fill="#E5E5E5"/>
<path d="M330.846 124.854L298.642 97.8615C296.367 95.9587 292.991 96.2686 291.084 98.5271C289.176 100.803 289.47 104.183 291.745 106.092L323.948 133.084C324.955 133.929 326.181 134.338 327.397 134.338C328.928 134.338 330.447 133.683 331.506 132.417C333.414 130.143 333.12 126.761 330.846 124.854Z" fill="#E5E5E5"/>
<path d="M311.641 139.546H284.459C281.492 139.546 279.091 141.946 279.091 144.913C279.091 147.881 281.492 150.281 284.459 150.281H311.641C314.608 150.281 317.009 147.881 317.009 144.913C317.009 141.946 314.608 139.546 311.641 139.546Z" fill="#E5E5E5"/>
<path d="M297.876 279.812C295.287 278.323 292.016 279.208 290.549 281.777C277.016 305.227 266.312 310.438 265.977 310.595C263.284 311.747 262.005 314.846 263.116 317.561C263.965 319.641 265.967 320.899 268.085 320.899C268.767 320.899 269.448 320.773 270.118 320.501C271.512 319.93 284.279 314.123 299.836 287.144C301.325 284.576 300.444 281.295 297.876 279.812Z" fill="#E5E5E5"/>
<path d="M359.61 322.036C359.599 322.036 359.599 322.036 359.599 322.036C356.643 322.036 354.243 324.431 354.233 327.393C354.233 328.221 353.237 410.725 281.795 451.556C279.216 453.024 278.327 456.294 279.793 458.872C280.79 460.613 282.603 461.578 284.459 461.578C285.372 461.578 286.284 461.347 287.122 460.865C364.087 416.899 364.967 331.031 364.967 327.398C364.967 324.437 362.566 322.036 359.61 322.036Z" fill="#E5E5E5"/>
<path d="M316.663 515.249C313.696 515.249 311.295 517.65 311.295 520.617V552.819C311.295 555.786 313.697 558.187 316.663 558.187C319.628 558.187 322.029 555.786 322.031 552.819V520.617C322.031 517.65 319.63 515.249 316.663 515.249Z" fill="#E5E5E5"/>
</svg>
