<svg width="20" height="19" viewBox="0 0 20 19" fill="none" xmlns="http://www.w3.org/2000/svg">
<g clip-path="url(#clip0)">
<path d="M9.51611 0C4.27781 0 0.0161133 4.2617 0.0161133 9.5C0.0161133 14.7383 4.27781 19 9.51611 19C14.7544 19 19.0161 14.7383 19.0161 9.5C19.0161 4.2617 14.7544 0 9.51611 0ZM9.51611 18.3667C4.6271 18.3667 0.649447 14.389 0.649447 9.5C0.649447 4.61098 4.6271 0.633333 9.51611 0.633333C14.4051 0.633333 18.3828 4.61098 18.3828 9.5C18.3828 14.389 14.4051 18.3667 9.51611 18.3667Z" fill="black"/>
<path d="M9.51611 1.90002C9.34131 1.90002 9.19945 2.04157 9.19945 2.21669V9.50002H4.44945C4.27465 9.50002 4.13278 9.64157 4.13278 9.81669C4.13278 9.99181 4.27465 10.1334 4.44945 10.1334H9.51611C9.69091 10.1334 9.83278 9.99181 9.83278 9.81669V2.21669C9.83278 2.04157 9.69091 1.90002 9.51611 1.90002Z" fill="black"/>
<path d="M10.5161 2V11H4.01611" stroke="#FF5F5F" stroke-opacity="0.48"/>
</g>
<defs>
<clipPath id="clip0">
<rect x="0.0161133" width="19" height="19" fill="white"/>
</clipPath>
</defs>
</svg>
